<svg width="118" height="118" viewBox="0 0 118 118" fill="none" xmlns="http://www.w3.org/2000/svg">
<path d="M85.55 11.8C84.7676 11.8 84.0173 12.1109 83.464 12.6641C82.9108 13.2173 82.6 13.9677 82.6 14.75C82.6 15.5324 82.9108 16.2828 83.464 16.836C84.0173 17.3892 84.7676 17.7 85.55 17.7H96.1287L67.85 45.9788L52.2386 30.3614C51.9646 30.0867 51.639 29.8688 51.2806 29.72C50.9222 29.5713 50.538 29.4948 50.15 29.4948C49.762 29.4948 49.3778 29.5713 49.0194 29.72C48.661 29.8688 48.3354 30.0867 48.0614 30.3614L18.5614 59.8614C18.0075 60.4154 17.6963 61.1667 17.6963 61.95C17.6963 62.7334 18.0075 63.4847 18.5614 64.0387C19.1153 64.5926 19.8666 64.9038 20.65 64.9038C21.4334 64.9038 22.1847 64.5926 22.7386 64.0387L50.15 36.6213L65.7614 52.2387C66.0354 52.5134 66.361 52.7313 66.7194 52.8801C67.0778 53.0288 67.462 53.1053 67.85 53.1053C68.238 53.1053 68.6222 53.0288 68.9806 52.8801C69.339 52.7313 69.6646 52.5134 69.9386 52.2387L100.3 21.8713V32.45C100.3 33.2324 100.611 33.9828 101.164 34.536C101.717 35.0892 102.468 35.4 103.25 35.4C104.032 35.4 104.783 35.0892 105.336 34.536C105.889 33.9828 106.2 33.2324 106.2 32.45V14.75C106.2 13.9677 105.889 13.2173 105.336 12.6641C104.783 12.1109 104.032 11.8 103.25 11.8H85.55ZM91.45 53.1C90.6676 53.1 89.9173 53.4108 89.364 53.9641C88.8108 54.5173 88.5 55.2677 88.5 56.05V103.25C88.5 104.032 88.8108 104.783 89.364 105.336C89.9173 105.889 90.6676 106.2 91.45 106.2C92.2324 106.2 92.9827 105.889 93.536 105.336C94.0892 104.783 94.4 104.032 94.4 103.25V56.05C94.4 55.2677 94.0892 54.5173 93.536 53.9641C92.9827 53.4108 92.2324 53.1 91.45 53.1ZM44.25 64.9C43.4676 64.9 42.7173 65.2109 42.164 65.7641C41.6108 66.3173 41.3 67.0677 41.3 67.85V103.25C41.3 104.032 41.6108 104.783 42.164 105.336C42.7173 105.889 43.4676 106.2 44.25 106.2C45.0324 106.2 45.7827 105.889 46.336 105.336C46.8892 104.783 47.2 104.032 47.2 103.25V67.85C47.2 67.0677 46.8892 66.3173 46.336 65.7641C45.7827 65.2109 45.0324 64.9 44.25 64.9ZM64.9 79.65C64.9 78.8677 65.2108 78.1173 65.764 77.5641C66.3173 77.0109 67.0676 76.7 67.85 76.7C68.6324 76.7 69.3827 77.0109 69.936 77.5641C70.4892 78.1173 70.8 78.8677 70.8 79.65V103.25C70.8 104.032 70.4892 104.783 69.936 105.336C69.3827 105.889 68.6324 106.2 67.85 106.2C67.0676 106.2 66.3173 105.889 65.764 105.336C65.2108 104.783 64.9 104.032 64.9 103.25V79.65ZM17.7 85.5501C17.7 84.7677 18.0108 84.0173 18.5641 83.4641C19.1173 82.9109 19.8676 82.6 20.65 82.6C21.4324 82.6 22.1827 82.9109 22.736 83.4641C23.2892 84.0173 23.6 84.7677 23.6 85.5501V103.25C23.6 104.032 23.2892 104.783 22.736 105.336C22.1827 105.889 21.4324 106.2 20.65 106.2C19.8676 106.2 19.1173 105.889 18.5641 105.336C18.0108 104.783 17.7 104.032 17.7 103.25V85.5501Z" fill="#6EC9B8"/>
</svg>
