<svg width="121" height="36" viewBox="0 0 121 36" fill="none" xmlns="http://www.w3.org/2000/svg">
<path d="M41.75 24V12.3636H44.9091V17.0682H45.0682L48.5682 12.3636H52.25L48.3182 17.5455L52.3409 24H48.5682L45.9545 19.6364L44.9091 21V24H41.75ZM60.0099 16.2045C59.9607 16.0038 59.883 15.8277 59.777 15.6761C59.6709 15.5208 59.5384 15.3902 59.3793 15.2841C59.224 15.1742 59.0421 15.0928 58.8338 15.0398C58.6293 14.983 58.4039 14.9545 58.1577 14.9545C57.6274 14.9545 57.1747 15.0814 56.7997 15.3352C56.4285 15.589 56.1444 15.9545 55.9474 16.4318C55.7543 16.9091 55.6577 17.4848 55.6577 18.1591C55.6577 18.8409 55.7505 19.4242 55.9361 19.9091C56.1217 20.3939 56.3982 20.7652 56.7656 21.0227C57.133 21.2803 57.5895 21.4091 58.1349 21.4091C58.616 21.4091 59.0156 21.339 59.3338 21.1989C59.6558 21.0587 59.8963 20.8598 60.0554 20.6023C60.2145 20.3447 60.294 20.0417 60.294 19.6932L60.8395 19.75H58.1804V17.5H63.3395V19.1136C63.3395 20.1742 63.1141 21.0814 62.6634 21.8352C62.2164 22.5852 61.599 23.161 60.8111 23.5625C60.027 23.9602 59.1274 24.1591 58.1122 24.1591C56.9796 24.1591 55.9853 23.9186 55.1293 23.4375C54.2732 22.9564 53.6046 22.2708 53.1236 21.3807C52.6463 20.4905 52.4077 19.4318 52.4077 18.2045C52.4077 17.2424 52.5535 16.3902 52.8452 15.6477C53.1406 14.9053 53.5497 14.2784 54.0724 13.767C54.5952 13.2519 55.1993 12.8636 55.8849 12.6023C56.5705 12.3371 57.3054 12.2045 58.0895 12.2045C58.7789 12.2045 59.419 12.303 60.0099 12.5C60.6046 12.6932 61.1293 12.9697 61.5838 13.3295C62.0421 13.6856 62.4115 14.108 62.6918 14.5966C62.9721 15.0852 63.1425 15.6212 63.2031 16.2045H60.0099ZM64.8125 24V12.3636H69.858C70.7443 12.3636 71.4886 12.483 72.0909 12.7216C72.697 12.9602 73.1534 13.2973 73.4602 13.733C73.7708 14.1686 73.9261 14.6818 73.9261 15.2727C73.9261 15.7008 73.8314 16.0909 73.642 16.4432C73.4564 16.7955 73.1951 17.0909 72.858 17.3295C72.5208 17.5644 72.1269 17.7273 71.6761 17.8182V17.9318C72.1761 17.9508 72.6307 18.0777 73.0398 18.3125C73.4489 18.5436 73.7746 18.8636 74.017 19.2727C74.2595 19.678 74.3807 20.1553 74.3807 20.7045C74.3807 21.3409 74.214 21.9072 73.8807 22.4034C73.5511 22.8996 73.0814 23.2898 72.4716 23.5739C71.8617 23.858 71.1345 24 70.2898 24H64.8125ZM67.9716 21.4773H69.4489C69.9792 21.4773 70.3769 21.3788 70.642 21.1818C70.9072 20.9811 71.0398 20.6856 71.0398 20.2955C71.0398 20.0227 70.9773 19.7917 70.8523 19.6023C70.7273 19.4129 70.5492 19.2689 70.3182 19.1705C70.0909 19.072 69.8163 19.0227 69.4943 19.0227H67.9716V21.4773ZM67.9716 17.0682H69.267C69.5436 17.0682 69.7879 17.0246 70 16.9375C70.2121 16.8504 70.3769 16.7254 70.4943 16.5625C70.6155 16.3958 70.6761 16.1932 70.6761 15.9545C70.6761 15.5947 70.5473 15.3201 70.2898 15.1307C70.0322 14.9375 69.7064 14.8409 69.3125 14.8409H67.9716V17.0682ZM78.5227 24H75.1136L78.9545 12.3636H83.2727L87.1136 24H83.7045L81.1591 15.5682H81.0682L78.5227 24ZM77.8864 19.4091H84.2955V21.7727H77.8864V19.4091ZM98.3026 12.3636V24H95.6662L91.4616 17.8864H91.3935V24H88.2344V12.3636H90.9162L95.0526 18.4545H95.1435V12.3636H98.3026ZM99.7969 24V12.3636H102.956V17.0682H103.115L106.615 12.3636H110.297L106.365 17.5455L110.388 24H106.615L104.001 19.6364L102.956 21V24H99.7969ZM117.351 16C117.321 15.6212 117.179 15.3258 116.925 15.1136C116.675 14.9015 116.294 14.7955 115.783 14.7955C115.457 14.7955 115.19 14.8352 114.982 14.9148C114.777 14.9905 114.625 15.0947 114.527 15.2273C114.429 15.3598 114.377 15.5114 114.374 15.6818C114.366 15.822 114.391 15.9489 114.447 16.0625C114.508 16.1723 114.603 16.2727 114.732 16.3636C114.86 16.4508 115.025 16.5303 115.226 16.6023C115.427 16.6742 115.665 16.7386 115.942 16.7955L116.896 17C117.54 17.1364 118.091 17.3163 118.55 17.5398C119.008 17.7633 119.383 18.0265 119.675 18.3295C119.966 18.6288 120.18 18.9659 120.317 19.3409C120.457 19.7159 120.529 20.125 120.533 20.5682C120.529 21.3333 120.338 21.9811 119.959 22.5114C119.58 23.0417 119.038 23.4451 118.334 23.7216C117.633 23.9981 116.79 24.1364 115.805 24.1364C114.794 24.1364 113.911 23.9867 113.158 23.6875C112.408 23.3883 111.824 22.928 111.408 22.3068C110.995 21.6818 110.786 20.8826 110.783 19.9091H113.783C113.802 20.2652 113.891 20.5644 114.05 20.8068C114.209 21.0492 114.432 21.233 114.72 21.358C115.012 21.483 115.358 21.5455 115.76 21.5455C116.097 21.5455 116.379 21.5038 116.607 21.4205C116.834 21.3371 117.006 21.2216 117.124 21.0739C117.241 20.9261 117.302 20.7576 117.305 20.5682C117.302 20.3902 117.243 20.2348 117.129 20.1023C117.019 19.9659 116.838 19.8447 116.584 19.7386C116.33 19.6288 115.987 19.5265 115.555 19.4318L114.396 19.1818C113.366 18.9583 112.554 18.5852 111.959 18.0625C111.368 17.536 111.074 16.8182 111.078 15.9091C111.074 15.1705 111.271 14.5246 111.669 13.9716C112.071 13.4148 112.625 12.9811 113.334 12.6705C114.046 12.3598 114.862 12.2045 115.783 12.2045C116.722 12.2045 117.535 12.3617 118.22 12.6761C118.906 12.9905 119.434 13.4337 119.805 14.0057C120.18 14.5739 120.37 15.2386 120.374 16H117.351Z" fill="#52599C"/>
<path d="M36 27C36 28.0609 35.5786 29.0783 34.8284 29.8284C34.0783 30.5786 33.0609 31 32 31H4C2.93913 31 1.92172 30.5786 1.17157 29.8284C0.421427 29.0783 0 28.0609 0 27V9C0 7.93913 0.421427 6.92172 1.17157 6.17157C1.92172 5.42143 2.93913 5 4 5H32C33.0609 5 34.0783 5.42143 34.8284 6.17157C35.5786 6.92172 36 7.93913 36 9V27Z" fill="#E8112D"/>
<path d="M18.473 11.986C18.487 10.941 19.413 10.222 19.452 8.83001C20.115 9.66401 19.019 11.227 19.408 12.134C19.586 11.105 20.611 10.539 20.869 9.17101C21.394 10.099 20.066 11.471 20.308 12.427C20.644 11.437 21.746 11.04 22.214 9.72801C22.587 10.727 21.062 11.874 21.152 12.856C21.638 11.932 22.789 11.712 23.457 10.489C23.67 11.534 21.982 12.428 21.918 13.413C22.543 12.576 23.715 12.538 24.565 11.435C24.612 12.501 22.805 13.119 22.588 14.082C23.336 13.353 24.498 13.499 25.51 12.542C25.391 13.602 23.51 13.931 23.143 14.848C23.997 14.245 25.123 14.571 26.272 13.785C25.989 14.813 24.079 14.844 23.575 15.692C24.511 15.23 25.571 15.728 26.831 15.131C26.39 16.101 24.497 15.833 23.866 16.592C24.864 16.282 25.835 16.941 27.171 16.548C26.581 17.438 24.757 16.876 24.015 17.527C25.048 17.377 25.904 18.178 27.284 18C26.565 18.787 24.849 17.947 24.015 18.473C25.06 18.487 25.779 19.414 27.169 19.451C26.335 20.117 24.773 19.017 23.866 19.408C24.897 19.586 25.462 20.611 26.831 20.869C25.903 21.394 24.53 20.066 23.573 20.308C24.563 20.644 24.962 21.746 26.272 22.214C25.274 22.589 24.128 21.062 23.143 21.152C24.069 21.638 24.29 22.789 25.51 23.457C24.465 23.67 23.572 21.982 22.586 21.918C23.424 22.543 23.461 23.715 24.565 24.565C23.5 24.612 22.879 22.805 21.918 22.588C22.647 23.336 22.5 24.498 23.457 25.51C22.396 25.391 22.068 23.51 21.152 23.143C21.754 23.997 21.427 25.123 22.214 26.272C21.185 25.989 21.155 24.079 20.308 23.575C20.771 24.511 20.271 25.571 20.869 26.831C19.898 26.39 20.166 24.497 19.408 23.866C19.717 24.864 19.06 25.835 19.452 27.171C18.562 26.581 19.124 24.757 18.473 24.015C18.623 25.048 17.822 25.904 18 27.284C17.213 26.565 18.053 24.849 17.527 24.015C17.513 25.06 16.587 25.779 16.548 27.169C15.883 26.337 16.981 24.773 16.591 23.866C16.414 24.897 15.388 25.462 15.131 26.831C14.606 25.903 15.934 24.53 15.691 23.575C15.355 24.563 14.253 24.962 13.785 26.272C13.411 25.274 14.938 24.128 14.848 23.143C14.361 24.069 13.21 24.29 12.543 25.51C12.33 24.465 14.018 23.572 14.082 22.588C13.457 23.424 12.286 23.461 11.436 24.565C11.388 23.5 13.196 22.879 13.413 21.918C12.665 22.647 11.502 22.5 10.49 23.457C10.61 22.396 12.492 22.068 12.857 21.152C12.004 21.754 10.878 21.427 9.72898 22.214C10.013 21.185 11.923 21.155 12.427 20.308C11.49 20.771 10.43 20.273 9.17098 20.869C9.61298 19.898 11.504 20.166 12.135 19.408C11.137 19.717 10.168 19.06 8.83098 19.451C9.41898 18.563 11.245 19.123 11.986 18.473C10.952 18.623 10.098 17.821 8.71698 18C9.43698 17.214 11.152 18.053 11.986 17.527C10.942 17.513 10.223 16.587 8.83098 16.548C9.66498 15.883 11.228 16.981 12.135 16.591C11.105 16.414 10.54 15.388 9.17198 15.131C10.1 14.605 11.472 15.934 12.428 15.691C11.438 15.355 11.041 14.253 9.72898 13.785C10.728 13.411 11.875 14.938 12.857 14.848C11.932 14.361 11.713 13.21 10.49 12.543C11.535 12.33 12.429 14.018 13.414 14.082C12.577 13.457 12.539 12.286 11.436 11.436C12.501 11.389 13.12 13.196 14.083 13.413C13.354 12.665 13.5 11.502 12.543 10.49C13.602 10.61 13.932 12.492 14.849 12.857C14.245 12.004 14.572 10.879 13.786 9.72901C14.814 10.013 14.845 11.923 15.693 12.427C15.231 11.49 15.729 10.43 15.132 9.17201C16.102 9.61301 15.834 11.504 16.593 12.135C16.283 11.137 16.942 10.168 16.549 8.83101C17.439 9.41901 16.877 11.245 17.528 11.986C17.377 10.952 18.179 10.098 18.001 8.71701C18.787 9.43601 17.947 11.152 18.473 11.986Z" fill="#FFCC4D"/>
<path d="M18.001 22.906C18.6453 22.9059 19.2832 22.7788 19.8784 22.5322C20.4735 22.2855 21.0143 21.924 21.4698 21.4684C21.9252 21.0127 22.2865 20.4718 22.5329 19.8765C22.7794 19.2812 22.9061 18.6433 22.906 17.999C22.9059 17.3547 22.7788 16.7168 22.5322 16.1216C22.2855 15.5265 21.924 14.9857 21.4684 14.5302C21.0127 14.0747 20.4718 13.7135 19.8765 13.4671C19.2812 13.2206 18.6433 13.0939 17.999 13.094C16.6978 13.0943 15.4501 13.6114 14.5302 14.5316C13.6104 15.4519 13.0937 16.6998 13.094 18.001C13.0943 19.3021 13.6114 20.5499 14.5316 21.4698C15.4519 22.3896 16.6998 22.9063 18.001 22.906Z" fill="#E8112D"/>
<path d="M18 13.451C19.252 13.451 20.377 13.987 21.16 14.844C19.931 14.968 18.889 15.258 18 15.699C17.111 15.258 16.068 14.968 14.841 14.844C15.2414 14.4044 15.7292 14.0534 16.2733 13.8136C16.8173 13.5737 17.4055 13.4502 18 13.451ZM17.677 15.873C17.579 15.9276 17.4823 15.9846 17.387 16.044C16.59 15.621 15.635 15.348 14.5 15.267C14.5518 15.1937 14.6062 15.1224 14.663 15.053C15.842 15.158 16.837 15.44 17.677 15.873ZM18.326 15.873C18.425 15.928 18.521 15.985 18.615 16.044C19.413 15.621 20.367 15.348 21.502 15.267C21.4506 15.1938 21.3966 15.1224 21.34 15.053C20.16 15.158 19.166 15.44 18.326 15.873ZM14.357 15.487C14.3117 15.5606 14.2686 15.6357 14.228 15.712C15.284 15.736 16.17 15.98 16.898 16.382C16.9741 16.3245 17.0514 16.2689 17.13 16.215C16.37 15.8 15.451 15.541 14.357 15.487ZM14.227 19.745C13.859 19.112 13.723 18.513 13.723 17.729C13.723 17.089 13.861 16.485 14.111 15.942C15.133 15.935 15.988 16.158 16.686 16.546C15.653 17.393 14.814 18.385 14.227 19.745ZM16.257 21.633C16.065 21.559 15.856 21.35 15.678 21.25C15.779 19.643 16.531 18.321 17.579 17.209C17.657 17.285 17.732 17.361 17.804 17.442C16.83 18.581 16.204 20.059 16.257 21.633ZM21.646 15.487C21.691 15.56 21.734 15.635 21.775 15.712C20.718 15.736 19.832 15.98 19.105 16.382C19.0288 16.3243 18.9511 16.2686 18.872 16.215C19.633 15.8 20.551 15.541 21.646 15.487Z" fill="#FFCC4D"/>
<path d="M21.775 19.746C22.142 19.113 22.279 18.513 22.279 17.729C22.279 17.089 22.14 16.485 21.89 15.942C20.869 15.935 20.0131 16.158 19.3151 16.546C20.3501 17.393 21.19 18.386 21.775 19.746ZM18.001 17.808C18.768 19.042 18.915 20.392 18.873 21.917C18.54 21.999 18.36 22.007 18.001 22.007C17.642 22.007 17.462 21.999 17.129 21.917C17.087 20.47 17.234 19.089 18.001 17.808ZM19.74 21.633C19.931 21.559 20.146 21.412 20.324 21.313C20.223 19.706 19.4701 18.321 18.4221 17.21C18.3449 17.2852 18.2701 17.3629 18.198 17.443C19.174 18.581 19.793 20.059 19.74 21.633ZM17.324 16.981C17.2296 16.9029 17.1318 16.8288 17.031 16.759C15.946 17.721 15.14 18.839 14.688 20.354C14.855 20.545 14.852 20.686 15.05 20.844C15.33 19.251 16.237 18.032 17.324 16.981ZM18.6791 16.981C18.7701 16.906 18.873 16.827 18.972 16.759C20.057 17.721 20.86 18.859 21.313 20.375C21.145 20.566 21.121 20.687 20.921 20.845C20.642 19.251 19.7661 18.032 18.6791 16.981ZM18.001 16.054C18.055 16.086 18.2401 16.202 18.2871 16.233C18.2141 16.278 18.047 16.391 18.001 16.422C17.9072 16.3567 17.8119 16.2937 17.715 16.233C17.762 16.202 17.947 16.085 18.001 16.054ZM17.46 16.411C17.387 16.466 17.276 16.551 17.234 16.587C17.339 16.656 17.48 16.763 17.525 16.798C17.58 16.751 17.6881 16.655 17.7491 16.611C17.6556 16.5402 17.5592 16.4735 17.46 16.411ZM18.542 16.411C18.615 16.466 18.726 16.551 18.768 16.587C18.6688 16.6541 18.5717 16.7245 18.477 16.798C18.423 16.751 18.314 16.655 18.253 16.611C18.328 16.556 18.486 16.442 18.542 16.411ZM18.001 16.81C18.048 16.85 18.1871 16.973 18.2241 17.01C18.1463 17.0784 18.0719 17.1505 18.001 17.226C17.9308 17.1503 17.8567 17.0782 17.779 17.01C17.815 16.973 17.955 16.851 18.001 16.81Z" fill="#FFCC4D"/>
</svg>
